<?xml version="1.0" encoding="UTF-8" standalone="no"?>
<!DOCTYPE svg PUBLIC "-//W3C//DTD SVG 1.1//EN" "http://www.w3.org/Graphics/SVG/1.1/DTD/svg11.dtd">
<svg width="100%" height="100%" viewBox="0 0 1258 1588" version="1.1" xmlns="http://www.w3.org/2000/svg" xmlns:xlink="http://www.w3.org/1999/xlink" xml:space="preserve" xmlns:serif="http://www.serif.com/" style="fill-rule:evenodd;clip-rule:evenodd;stroke-linejoin:round;stroke-miterlimit:2;">
    <g transform="matrix(1,0,0,1,-7387,-5248)">
        <g id="Artboard1" transform="matrix(2.03171,0,0,2.1681,0,12.5274)">
            <rect x="0" y="0" width="5905.51" height="5905.51" style="fill:none;"/>
            <g transform="matrix(0.492197,0,0,0.461232,3576.27,60.9415)">
                <path d="M167.033,5509.41L668.132,5798.72L668.132,6618.44L167.033,6329.12L167.033,5509.41ZM835.165,6642.54L835.165,6232.69L1336.27,6522L1336.27,6642.54L835.165,6642.54ZM835.165,5798.72L1336.27,5509.41L1336.27,6329.12L835.165,6039.82L835.165,5798.72ZM167.033,5316.54L167.033,5171.89L1336.27,5171.89L1336.27,5316.54L751.649,5654.07L167.033,5316.54Z"/>
            </g>
        </g>
    </g>
</svg>
