<?xml version="1.0" encoding="UTF-8" standalone="no"?><!DOCTYPE svg PUBLIC "-//W3C//DTD SVG 1.1//EN" "http://www.w3.org/Graphics/SVG/1.1/DTD/svg11.dtd"><svg width="100%" height="100%" viewBox="0 0 1269 1480" version="1.1" xmlns="http://www.w3.org/2000/svg" xmlns:xlink="http://www.w3.org/1999/xlink" xml:space="preserve" xmlns:serif="http://www.serif.com/" style="fill-rule:evenodd;clip-rule:evenodd;stroke-linejoin:round;stroke-miterlimit:2;"><rect id="Artboard1" x="-9991" y="-1884.47" width="11998.3" height="12803.8" style="fill:none;"/><path d="M699.118,1442.59l0,-433.965l375.825,216.983l-125.275,72.327l-125.275,-72.327l0,144.655l-125.275,72.327Zm-668.132,-1253.68l501.099,289.31l0,964.366l-250.549,-144.655l-0,-675.056l-250.55,-144.655l-0,-289.31Zm668.132,289.31l501.1,-289.31l-0,289.31l-250.55,144.655l-0,96.437l250.55,144.655l-0,289.309l-501.1,-289.309l0,-385.747Zm-668.132,-433.965l417.583,0l167.033,96.437l167.033,-96.437l417.583,0l-584.616,337.529l-584.616,-337.529Z"/></svg>